<?xml version="1.0" encoding="UTF-8"?>
<!DOCTYPE svg PUBLIC "-//W3C//DTD SVG 1.1//EN" "http://www.w3.org/Graphics/SVG/1.1/DTD/svg11.dtd">
<svg xmlns="http://www.w3.org/2000/svg" version="1.1" width="225px" height="225px" style="shape-rendering:geometricPrecision; text-rendering:geometricPrecision; image-rendering:optimizeQuality; fill-rule:evenodd; clip-rule:evenodd" xmlns:xlink="http://www.w3.org/1999/xlink">
<g><path style="opacity:1" fill="#fdfefe" d="M -0.5,-0.5 C 74.5,-0.5 149.5,-0.5 224.5,-0.5C 224.5,74.5 224.5,149.5 224.5,224.5C 149.5,224.5 74.5,224.5 -0.5,224.5C -0.5,149.5 -0.5,74.5 -0.5,-0.5 Z"/></g>
<g><path style="opacity:1" fill="#fb1007" d="M 144.5,4.5 C 144.762,7.25161 144.762,10.2516 144.5,13.5C 184.386,28.4075 207.386,57.0742 213.5,99.5C 209.846,99.9422 206.179,100.276 202.5,100.5C 198.655,69.8327 183.655,46.3327 157.5,30C 152.475,26.9845 147.142,24.8178 141.5,23.5C 141.322,26.2165 140.822,28.8832 140,31.5C 132.888,26.0222 126.054,20.1888 119.5,14C 127.86,10.7163 136.193,7.54962 144.5,4.5 Z"/></g>
<g><path style="opacity:1" fill="#f9e026" d="M 98.5,7.5 C 100.167,7.5 101.833,7.5 103.5,7.5C 103.5,11.1667 103.5,14.8333 103.5,18.5C 67.1768,22.6574 41.3435,41.3241 26,74.5C 21.9314,84.1057 19.7647,94.1057 19.5,104.5C 22.2469,104.187 24.9135,104.52 27.5,105.5C 22.8643,113.3 18.031,120.967 13,128.5C 8.70602,120.746 4.53936,112.913 0.5,105C 3.14603,104.503 5.8127,104.336 8.5,104.5C 13.0606,61.5215 35.0606,31.3548 74.5,14C 82.5075,11.3738 90.5075,9.20717 98.5,7.5 Z"/></g>
<g><path style="opacity:1" fill="#146ec4" d="M 54.5,60.5 C 58.7675,60.203 62.9341,60.5363 67,61.5C 73.8205,82.2959 80.8205,102.963 88,123.5C 95.3333,102.833 102.667,82.1667 110,61.5C 113.73,60.5399 117.563,60.2065 121.5,60.5C 123.287,85.822 124.953,111.155 126.5,136.5C 124.167,136.5 121.833,136.5 119.5,136.5C 118.313,114.792 116.646,93.1255 114.5,71.5C 106.241,92.9418 98.5747,114.608 91.5,136.5C 89.1667,136.5 86.8333,136.5 84.5,136.5C 77.5701,114.71 70.2368,93.0438 62.5,71.5C 60.1693,93.1173 58.5026,114.784 57.5,136.5C 55.1667,136.5 52.8333,136.5 50.5,136.5C 51.8937,111.171 53.2271,85.8379 54.5,60.5 Z"/></g>
<g><path style="opacity:1" fill="#176dc4" d="M 136.5,72.5 C 144.135,71.9343 151.301,73.2676 158,76.5C 158.944,82.5533 156.444,84.7199 150.5,83C 149.257,81.8455 148.257,80.5122 147.5,79C 144.167,78.3333 140.833,78.3333 137.5,79C 136.878,80.5691 136.544,82.2358 136.5,84C 138.793,94.8785 142.293,105.379 147,115.5C 150.389,121.723 155.222,126.39 161.5,129.5C 168.358,127.158 173.524,122.825 177,116.5C 182.054,105.283 185.054,93.6165 186,81.5C 184.874,80.0564 183.374,79.3898 181.5,79.5C 179.067,81.2578 176.4,82.5911 173.5,83.5C 172.006,83.2908 170.839,82.6241 170,81.5C 169.333,79.5 169.333,77.5 170,75.5C 175.717,73.9766 181.551,73.4766 187.5,74C 188.667,75.1667 189.833,76.3333 191,77.5C 191.583,93.5024 187.916,108.502 180,122.5C 176.232,128.269 171.232,132.602 165,135.5C 162.321,146.383 156.154,154.549 146.5,160C 142.277,161.472 137.943,162.472 133.5,163C 123.5,163.333 113.5,163.667 103.5,164C 101.003,166.827 98.1696,169.327 95,171.5C 81.4269,173.927 75.7602,168.26 78,154.5C 83.0377,147.107 89.5377,145.607 97.5,150C 99.7165,152.305 101.383,154.972 102.5,158C 115.572,158.815 128.572,158.148 141.5,156C 150.223,151.64 155.39,144.807 157,135.5C 149.93,130.028 144.264,123.362 140,115.5C 133.987,103.12 130.987,90.1199 131,76.5C 132.812,75.0229 134.645,73.6896 136.5,72.5 Z"/></g>
<g><path style="opacity:1" fill="#12a14c" d="M 207.5,124.5 C 210.525,132.76 213.192,141.26 215.5,150C 215.167,150.5 214.833,151 214.5,151.5C 211.67,150.068 208.836,149.735 206,150.5C 184.862,195.334 149.362,216.5 99.5,214C 59.6228,207.93 31.9561,186.43 16.5,149.5C 19.6862,149.105 22.6862,148.105 25.5,146.5C 45.4026,187.29 78.0693,206.123 123.5,203C 157.692,197.082 182.025,178.416 196.5,147C 193.673,146.299 191.006,145.299 188.5,144C 195.036,137.631 201.369,131.131 207.5,124.5 Z"/></g>
<g><path style="opacity:1" fill="#fafcfd" d="M 85.5,150.5 C 95.4812,149.981 99.6479,154.648 98,164.5C 95.4586,169.069 91.6253,170.569 86.5,169C 81.2685,166.367 79.4351,162.201 81,156.5C 82.332,154.34 83.832,152.34 85.5,150.5 Z"/></g>
</svg>
