<?xml version="1.0" encoding="UTF-8"?>
<!DOCTYPE svg PUBLIC "-//W3C//DTD SVG 1.1//EN" "http://www.w3.org/Graphics/SVG/1.1/DTD/svg11.dtd">
<svg xmlns="http://www.w3.org/2000/svg" version="1.1" width="218px" height="85px" style="shape-rendering:geometricPrecision; text-rendering:geometricPrecision; image-rendering:optimizeQuality; fill-rule:evenodd; clip-rule:evenodd" xmlns:xlink="http://www.w3.org/1999/xlink">
<g><path style="opacity:0.861" fill="#fefffe" d="M 147.5,-0.5 C 149.167,-0.5 150.833,-0.5 152.5,-0.5C 173.666,12.9202 195.333,25.5869 217.5,37.5C 217.5,41.1667 217.5,44.8333 217.5,48.5C 215.194,48.0074 212.861,47.6741 210.5,47.5C 209.791,46.596 208.791,46.2627 207.5,46.5C 206.791,45.596 205.791,45.2627 204.5,45.5C 195.88,40.1865 186.88,35.3532 177.5,31C 166.768,21.9276 155.768,13.2609 144.5,5C 144.895,2.75162 145.895,0.918284 147.5,-0.5 Z"/></g>
<g><path style="opacity:0.83" fill="#fefffe" d="M 123.5,8.5 C 125.355,8.27203 126.188,8.9387 126,10.5C 118.337,16.3333 111.17,22.6667 104.5,29.5C 103.501,41.8153 103.168,54.1487 103.5,66.5C 100.833,66.5 98.1667,66.5 95.5,66.5C 95.6665,57.1607 95.4998,47.8274 95,38.5C 88.238,43.425 82.738,49.425 78.5,56.5C 77.8003,53.9851 76.4669,53.3184 74.5,54.5C 73.8333,50.8333 73.1667,47.1667 72.5,43.5C 71.3131,44.8938 70.6465,44.7271 70.5,43C 72.3965,41.2169 74.0632,39.2169 75.5,37C 76.7932,36.51 78.1266,36.3433 79.5,36.5C 82.0392,28.9852 87.3725,25.3186 95.5,25.5C 95.5,20.5 95.5,15.5 95.5,10.5C 98.1667,10.5 100.833,10.5 103.5,10.5C 103.336,13.1873 103.503,15.854 104,18.5C 111.056,15.9995 117.556,12.6661 123.5,8.5 Z"/></g>
<g><path style="opacity:0.764" fill="#fefffe" d="M 15.5,9.5 C 19.8461,9.33432 24.1794,9.50098 28.5,10C 35.4905,12.1679 36.4905,16.0012 31.5,21.5C 29.8491,19.0485 27.8491,16.8818 25.5,15C 18.072,13.0428 13.4053,15.7095 11.5,23C 11.7305,25.6998 12.7305,28.0332 14.5,30C 21.5261,32.5952 28.0261,36.0952 34,40.5C 40.1044,53.1261 36.6044,61.9594 23.5,67C 16.2989,68.4402 9.63226,67.2736 3.5,63.5C 2.93152,60.5884 2.93152,57.5884 3.5,54.5C 6.29513,57.4064 9.62847,59.9064 13.5,62C 25.1457,63.6885 29.979,58.8551 28,47.5C 26.5,46 25,44.5 23.5,43C 18.6692,41.3895 14.0025,39.3895 9.5,37C 0.199068,25.3972 2.19907,16.2306 15.5,9.5 Z"/></g>
<g><path style="opacity:0.785" fill="#fefffe" d="M 45.5,84.5 C 44.8333,84.5 44.1667,84.5 43.5,84.5C 44.1949,82.0219 45.6949,80.0219 48,78.5C 48.6667,76.5 48.6667,74.5 48,72.5C 45.4066,74.5486 42.9066,76.7152 40.5,79C 35.0841,78.6282 30.7508,80.4615 27.5,84.5C 18.1667,84.5 8.83333,84.5 -0.5,84.5C -0.5,83.8333 -0.5,83.1667 -0.5,82.5C 1.82883,80.1587 3.82883,77.4921 5.5,74.5C 14.0606,73.866 22.394,72.1994 30.5,69.5C 30.3832,67.5165 31.0499,65.8498 32.5,64.5C 37.0076,61.7467 41.3409,58.7467 45.5,55.5C 43.8555,53.0748 42.6888,50.4081 42,47.5C 38.6989,24.1495 48.6989,11.4828 72,9.5C 78.3498,9.46373 84.5165,10.4637 90.5,12.5C 90.4011,15.6049 89.4011,18.2716 87.5,20.5C 79.2697,13.9279 70.2697,12.7613 60.5,17C 50.5127,26.1152 48.0127,36.9485 53,49.5C 58.2101,47.4574 63.5434,45.7907 69,44.5C 69.7494,45.635 69.5827,46.635 68.5,47.5C 65.0092,51.1602 61.6758,54.9935 58.5,59C 59.4162,59.3742 60.2496,59.8742 61,60.5C 63.3887,58.0497 66.222,56.883 69.5,57C 67.8333,58.6667 66.1667,60.3333 64.5,62C 69.1667,64 73.8333,64 78.5,62C 82.2619,60.1191 85.9286,58.2857 89.5,56.5C 90.5705,61.5976 88.5705,64.7643 83.5,66C 77.2425,67.3173 70.9092,67.8173 64.5,67.5C 64.477,69.9267 63.977,72.26 63,74.5C 60.5118,75.4122 58.8452,74.4122 58,71.5C 56.2267,74.4181 54.7267,77.4181 53.5,80.5C 50.1485,80.53 47.4818,81.8633 45.5,84.5 Z M 49.5,71.5 C 51.147,68.3436 53.4804,66.1769 56.5,65C 55.8985,69.1035 53.5652,71.2702 49.5,71.5 Z"/></g>
<g><path style="opacity:0.666" fill="#fefffe" d="M 159.5,33.5 C 159.5,32.8333 159.167,32.5 158.5,32.5C 158.158,31.6618 157.492,31.3284 156.5,31.5C 154.533,29.5066 152.533,27.5066 150.5,25.5C 151.76,24.6184 152.926,23.6184 154,22.5C 156.443,23.5933 158.943,24.5933 161.5,25.5C 164.67,28.8823 166.67,32.549 167.5,36.5C 165.021,34.9239 162.354,33.9239 159.5,33.5 Z"/></g>
<g><path style="opacity:0.697" fill="#fefffe" d="M 141.5,27.5 C 142.552,27.3505 143.552,27.5172 144.5,28C 142.082,31.0469 139.082,33.3802 135.5,35C 137.82,36.4876 137.987,38.3209 136,40.5C 126.602,49.0679 116.768,57.0679 106.5,64.5C 105.479,63.9984 105.312,63.3317 106,62.5C 111.339,57.4945 116.339,52.1611 121,46.5C 124.761,36.9077 131.594,30.5744 141.5,27.5 Z"/></g>
<g><path style="opacity:0.893" fill="#fefffe" d="M 156.5,31.5 C 156.842,32.3382 157.508,32.6716 158.5,32.5C 159.167,32.5 159.5,32.8333 159.5,33.5C 165.098,37.25 170.598,41.25 176,45.5C 176.591,46.4835 176.257,47.1501 175,47.5C 169.339,46.2746 169.172,46.7746 174.5,49C 180.576,49.5402 186.576,50.2069 192.5,51C 189.684,47.4201 186.017,45.0867 181.5,44C 180.5,43 179.5,42 178.5,41C 179,40.8333 179.5,40.6667 180,40.5C 188.101,42.3993 196.267,44.066 204.5,45.5C 205.209,46.404 206.209,46.7373 207.5,46.5C 208.209,47.404 209.209,47.7373 210.5,47.5C 212.438,49.1628 214.772,49.8294 217.5,49.5C 217.5,61.1667 217.5,72.8333 217.5,84.5C 201.5,84.5 185.5,84.5 169.5,84.5C 170.058,83.2101 171.058,82.3768 172.5,82C 170.413,81.2078 168.579,80.0412 167,78.5C 166.902,76.3807 166.069,74.714 164.5,73.5C 163.088,74.8064 161.421,75.6397 159.5,76C 161.54,78.1851 162.874,80.6851 163.5,83.5C 162.209,83.2627 161.209,83.596 160.5,84.5C 152.5,84.5 144.5,84.5 136.5,84.5C 137.242,82.5742 138.242,80.7409 139.5,79C 144.833,77.3333 150.167,75.6667 155.5,74C 153.833,72.3333 152.167,70.6667 150.5,69C 148.773,69.5258 147.106,69.3591 145.5,68.5C 143.203,66.7059 141.037,64.7059 139,62.5C 136.381,65.8892 132.881,67.3892 128.5,67C 122.327,72.9191 115.327,77.5858 107.5,81C 106.663,82.0113 106.33,83.1779 106.5,84.5C 103.167,84.5 99.8333,84.5 96.5,84.5C 98.8442,81.6582 101.844,79.8248 105.5,79C 115.081,70.7521 123.915,61.9188 132,52.5C 132.44,45.585 135.94,42.2516 142.5,42.5C 137.076,46.3231 135.909,51.3231 139,57.5C 139.533,53.5543 141.366,50.3876 144.5,48C 143.949,46.6015 143.616,45.2682 143.5,44C 144.784,43.3162 145.951,43.4829 147,44.5C 147.5,43.5 148,42.5 148.5,41.5C 147.585,40.6721 146.919,39.6721 146.5,38.5C 147.488,35.2184 148.154,31.8851 148.5,28.5C 151.406,28.9565 154.072,29.9565 156.5,31.5 Z"/></g>
<g><path style="opacity:0.625" fill="#fefffe" d="M 88.5,84.5 C 86.1667,84.5 83.8333,84.5 81.5,84.5C 80.8333,83.1667 80.1667,83.1667 79.5,84.5C 74.8333,84.5 70.1667,84.5 65.5,84.5C 67.9221,80.9232 71.2554,78.2565 75.5,76.5C 76.548,77.3829 77.7147,78.0496 79,78.5C 82.3701,77.2131 85.7034,76.8797 89,77.5C 93.6958,73.9715 98.5291,70.6382 103.5,67.5C 104.521,68.0016 104.688,68.6683 104,69.5C 102.833,70.6667 101.667,71.8333 100.5,73C 101.308,73.3076 101.975,73.8076 102.5,74.5C 97.5133,77.5025 92.8466,80.8358 88.5,84.5 Z"/></g>
<g><path style="opacity:0.407" fill="#fefffe" d="M 145.5,68.5 C 145.631,69.2389 145.464,69.9056 145,70.5C 139.099,74.3649 133.932,79.0316 129.5,84.5C 127.833,84.5 126.167,84.5 124.5,84.5C 130.095,79.6846 135.762,74.8513 141.5,70C 142.745,69.2086 144.078,68.7086 145.5,68.5 Z"/></g>
</svg>
